# xmcd
#
# Track frame offsets:
# 150
# 18007
# 30700
# 42827
# 51377
# 62780
# 78429
# 91557
# 107777
# 119950
# 130442
# 143370
# 161092
# 177142
# 191192
#
# Disc length: 2717 seconds
#
#
# Revision: 0
# Processed by: cddbd v1.5.2PL0 Copyright (c) Steve Scherf et al.
# Submitted via: FreeRIP 2.951 
#
DISCID=cb0a9b0f
DTITLE=Streets of Laredo
DYEAR=1995
DGENRE=Country
TTITLE0=The streets of laredo
TTITLE1=Don`t take your guns to town
TTITLE2=Cowboy
TTITLE3=I ride an old paint
TTITLE4=Halfbreed
TTITLE5=When the work`s all done this fall
TTITLE6=Cool water
TTITLE7=Tom Dula
TTITLE8=Tumbling tumbleweeds
TTITLE9=Indian burial ground
TTITLE10=The last great roundup
TTITLE11=Jesse James
TTITLE12=Patanio, the pride of the plains
TTITLE13=Cross the brazos at waco
TTITLE14=Tyin`knots in the devil`s tail
EXTD=
EXTT0=
EXTT1=
EXTT2=
EXTT3=
EXTT4=
EXTT5=
EXTT6=
EXTT7=
EXTT8=
EXTT9=
EXTT10=
EXTT11=
EXTT12=
EXTT13=
EXTT14=
PLAYORDER=
